<svg width="220" height="48" viewBox="0 0 220 48" fill="none" xmlns="http://www.w3.org/2000/svg">
<path d="M216.935 34.2069C217.482 34.2069 217.998 34.1461 218.484 34.0246C218.983 33.903 219.487 33.7511 219.998 33.5688V37.7073C219.475 37.9747 218.825 38.1935 218.047 38.3636C217.281 38.546 216.443 38.6371 215.531 38.6371C214.644 38.6371 213.817 38.5338 213.052 38.3272C212.286 38.1206 211.623 37.762 211.064 37.2515C210.505 36.7289 210.062 36.0361 209.733 35.1732C209.417 34.2981 209.259 33.2042 209.259 31.8915V22.0648H206.598V19.713L209.661 17.8534L211.265 13.5508H214.82V17.8898H219.779V22.0648H214.82V31.8915C214.82 32.6815 215.014 33.2649 215.403 33.6417C215.792 34.0185 216.303 34.2069 216.935 34.2069Z" fill="#474747"/>
<path d="M197.068 21.4621C196.083 21.4621 195.263 21.8085 194.606 22.5013C193.962 23.194 193.591 24.2818 193.494 25.7647H200.586C200.574 25.1448 200.495 24.5735 200.349 24.0509C200.203 23.5283 199.985 23.0786 199.693 22.7018C199.401 22.3129 199.037 22.009 198.599 21.7902C198.161 21.5715 197.651 21.4621 197.068 21.4621ZM197.779 38.636C196.32 38.636 194.977 38.4233 193.749 37.9979C192.522 37.5725 191.464 36.9344 190.577 36.0836C189.69 35.2207 188.997 34.1389 188.499 32.8384C188.013 31.5258 187.77 29.9883 187.77 28.2259C187.77 26.4392 187.994 24.8774 188.444 23.5404C188.894 22.2035 189.52 21.0914 190.322 20.2041C191.136 19.3047 192.109 18.6301 193.239 18.1804C194.381 17.7307 195.645 17.5059 197.031 17.5059C198.38 17.5059 199.596 17.7125 200.677 18.1257C201.771 18.5268 202.695 19.1224 203.448 19.9124C204.214 20.7024 204.798 21.6748 205.199 22.8294C205.612 23.9719 205.819 25.2846 205.819 26.7674V29.4656H193.385C193.409 30.2435 193.531 30.9484 193.749 31.5805C193.98 32.2003 194.296 32.729 194.697 33.1666C195.111 33.592 195.603 33.9202 196.174 34.1511C196.758 34.382 197.42 34.4975 198.161 34.4975C198.781 34.4975 199.365 34.4671 199.912 34.4063C200.471 34.3334 201.012 34.2301 201.534 34.0964C202.057 33.9627 202.573 33.7986 203.084 33.6041C203.594 33.3975 204.117 33.1605 204.652 32.8931V37.1957C204.166 37.451 203.673 37.6697 203.175 37.8521C202.689 38.0222 202.172 38.1681 201.625 38.2896C201.078 38.4111 200.489 38.4962 199.857 38.5448C199.225 38.6056 198.532 38.636 197.779 38.636Z" fill="#474747"/>
<path d="M174.014 27.1857L176.056 24.0863L181.033 17.8877H187.304L179.939 26.7299L187.778 38.2703H181.361L176.402 30.4308L174.232 31.9258V38.2703H168.672V9.90234H174.232V22.5549L173.941 27.1857H174.014Z" fill="#474747"/>
<path d="M164.945 17.5059C165.091 17.5059 165.249 17.5119 165.419 17.5241C165.602 17.5241 165.772 17.5362 165.93 17.5606C166.1 17.5727 166.252 17.5909 166.386 17.6152C166.531 17.6274 166.641 17.6456 166.714 17.6699V22.8841C166.616 22.8598 166.483 22.8355 166.313 22.8112C166.142 22.7869 165.96 22.7686 165.766 22.7565C165.583 22.7322 165.401 22.72 165.219 22.72C165.036 22.7079 164.885 22.7018 164.763 22.7018C164.046 22.7018 163.383 22.793 162.776 22.9753C162.18 23.1576 161.664 23.4554 161.226 23.8686C160.801 24.2697 160.466 24.8045 160.223 25.473C159.992 26.1293 159.877 26.9375 159.877 27.8977V38.2714H154.316V17.8887H158.528L159.348 20.9516H159.622C159.913 20.429 160.229 19.9549 160.57 19.5295C160.91 19.1041 161.287 18.7456 161.7 18.4539C162.126 18.15 162.6 17.9191 163.122 17.7611C163.657 17.5909 164.265 17.5059 164.945 17.5059Z" fill="#474747"/>
<path d="M146.572 38.2727L145.496 35.5015H145.332C144.931 36.0485 144.53 36.5225 144.129 36.9236C143.728 37.3125 143.29 37.6346 142.816 37.8898C142.342 38.1451 141.807 38.3335 141.212 38.455C140.628 38.5765 139.948 38.6373 139.17 38.6373C138.343 38.6373 137.578 38.5097 136.873 38.2545C136.168 37.9871 135.554 37.592 135.031 37.0694C134.521 36.5346 134.12 35.8661 133.828 35.064C133.536 34.2496 133.391 33.2894 133.391 32.1834C133.391 30.02 134.083 28.4278 135.469 27.4068C136.855 26.3737 138.927 25.8024 141.686 25.693L144.931 25.5837V24.0522C144.931 23.2136 144.688 22.5937 144.202 22.1926C143.716 21.7915 143.035 21.591 142.16 21.591C141.285 21.591 140.428 21.7186 139.589 21.9738C138.763 22.2291 137.93 22.5694 137.092 22.9948L135.287 19.3121C136.308 18.7408 137.438 18.2911 138.678 17.963C139.917 17.6348 141.218 17.4707 142.579 17.4707C145.119 17.4707 147.064 18.0663 148.413 19.2574C149.775 20.4485 150.455 22.2595 150.455 24.6903V38.2727H146.572ZM144.931 28.8288L143.09 28.9018C142.348 28.9261 141.722 29.0233 141.212 29.1935C140.701 29.3636 140.288 29.5946 139.972 29.8863C139.668 30.1658 139.443 30.5061 139.298 30.9072C139.164 31.2961 139.097 31.7337 139.097 32.2199C139.097 33.0707 139.304 33.6784 139.717 34.043C140.13 34.3955 140.671 34.5717 141.339 34.5717C141.85 34.5717 142.324 34.4866 142.762 34.3165C143.199 34.1342 143.576 33.8728 143.892 33.5325C144.22 33.1801 144.475 32.7547 144.658 32.2563C144.84 31.7459 144.931 31.1625 144.931 30.5061V28.8288Z" fill="#474747"/>
<path d="M113.677 38.2695L107.825 17.3581H107.661C107.734 18.4763 107.794 19.558 107.843 20.6033C107.867 21.053 107.886 21.5149 107.898 21.9889C107.922 22.4629 107.94 22.9308 107.952 23.3927C107.977 23.8546 107.989 24.2982 107.989 24.7236C108.001 25.149 108.007 25.5318 108.007 25.8722V38.2695H102.957V11.6152H110.651L116.412 31.9979H116.521L122.647 11.6152H130.341V38.2695H125.072V25.6534C125.072 25.3374 125.072 24.9788 125.072 24.5777C125.084 24.1766 125.096 23.7512 125.108 23.3015C125.12 22.8518 125.132 22.396 125.145 21.9342C125.169 21.4723 125.187 21.0226 125.199 20.5851C125.248 19.5641 125.29 18.5006 125.327 17.3946H125.181L118.873 38.2695H113.677Z" fill="#474747"/>
<path d="M86.6257 28.0436C86.6257 30.0733 86.9113 31.6048 87.4826 32.6379C88.0538 33.6588 88.9836 34.1693 90.272 34.1693C91.5481 34.1693 92.4719 33.6528 93.0431 32.6197C93.6144 31.5865 93.9 30.0612 93.9 28.0436C93.9 26.0138 93.6144 24.5006 93.0431 23.504C92.4719 22.4952 91.536 21.9908 90.2355 21.9908C88.9593 21.9908 88.0356 22.4952 87.4643 23.504C86.9052 24.5006 86.6257 26.0138 86.6257 28.0436ZM99.5699 28.0436C99.5699 29.7452 99.3512 31.2523 98.9136 32.565C98.4882 33.8776 97.8684 34.9837 97.054 35.8831C96.2518 36.7825 95.2673 37.4692 94.1005 37.9432C92.9459 38.4051 91.6454 38.636 90.199 38.636C88.8499 38.636 87.6102 38.4051 86.4798 37.9432C85.3495 37.4692 84.3711 36.7825 83.5446 35.8831C82.7302 34.9837 82.0922 33.8776 81.6303 32.565C81.1684 31.2523 80.9375 29.7452 80.9375 28.0436C80.9375 26.3541 81.1502 24.8531 81.5756 23.5404C82.0131 22.2278 82.633 21.1278 83.4352 20.2406C84.2495 19.3411 85.234 18.6605 86.3887 18.1987C87.5433 17.7368 88.8499 17.5059 90.3084 17.5059C91.6575 17.5059 92.8973 17.7368 94.0276 18.1987C95.158 18.6605 96.1303 19.3411 96.9446 20.2406C97.7711 21.1278 98.4153 22.2278 98.8772 23.5404C99.339 24.8531 99.5699 26.3541 99.5699 28.0436Z" fill="#474747"/>
<path d="M78.2656 17.5059C78.4114 17.5059 78.5695 17.5119 78.7396 17.5241C78.9219 17.5241 79.0921 17.5362 79.2501 17.5606C79.4202 17.5727 79.5722 17.5909 79.7059 17.6152C79.8517 17.6274 79.9611 17.6456 80.034 17.6699V22.8841C79.9368 22.8598 79.8031 22.8355 79.6329 22.8112C79.4628 22.7869 79.2805 22.7686 79.086 22.7565C78.9037 22.7322 78.7214 22.72 78.5391 22.72C78.3568 22.7079 78.2048 22.7018 78.0833 22.7018C77.3662 22.7018 76.7038 22.793 76.0961 22.9753C75.5005 23.1576 74.984 23.4554 74.5464 23.8686C74.121 24.2697 73.7868 24.8045 73.5437 25.473C73.3127 26.1293 73.1973 26.9375 73.1973 27.8977V38.2714H67.6367V17.8887H71.8482L72.6686 20.9516H72.942C73.2337 20.429 73.5498 19.9549 73.8901 19.5295C74.2304 19.1041 74.6072 18.7456 75.0204 18.4539C75.4458 18.15 75.9198 17.9191 76.4425 17.7611C76.9772 17.5909 77.585 17.5059 78.2656 17.5059Z" fill="#474747"/>
<path d="M62.3176 34.2069C62.8646 34.2069 63.3811 34.1461 63.8673 34.0246C64.3656 33.903 64.87 33.7511 65.3805 33.5688V37.7073C64.8579 37.9747 64.2076 38.1935 63.4298 38.3636C62.664 38.546 61.8254 38.6371 60.9138 38.6371C60.0266 38.6371 59.2001 38.5338 58.4344 38.3272C57.6687 38.1206 57.0062 37.762 56.4472 37.2515C55.8881 36.7289 55.4444 36.0361 55.1163 35.1732C54.8002 34.2981 54.6422 33.2042 54.6422 31.8915V22.0648H51.9805V19.713L55.0433 17.8534L56.6477 13.5508H60.2028V17.8898H65.1617V22.0648H60.2028V31.8915C60.2028 32.6815 60.3973 33.2649 60.7862 33.6417C61.1751 34.0185 61.6856 34.2069 62.3176 34.2069Z" fill="#474747"/>
<path d="M42.4542 21.4621C41.4697 21.4621 40.6493 21.8085 39.993 22.5013C39.3488 23.194 38.9781 24.2818 38.8809 25.7647H45.9729C45.9607 25.1448 45.8817 24.5735 45.7359 24.0509C45.59 23.5283 45.3713 23.0786 45.0796 22.7018C44.7879 22.3129 44.4232 22.009 43.9857 21.7902C43.5481 21.5715 43.0376 21.4621 42.4542 21.4621ZM43.1653 38.636C41.7068 38.636 40.3637 38.4233 39.1361 37.9979C37.9086 37.5725 36.8511 36.9344 35.9639 36.0836C35.0766 35.2207 34.3838 34.1389 33.8855 32.8384C33.3993 31.5258 33.1562 29.9883 33.1562 28.2259C33.1562 26.4392 33.3811 24.8774 33.8308 23.5404C34.2805 22.2035 34.9065 21.0914 35.7086 20.2041C36.523 19.3047 37.4953 18.6301 38.6257 18.1804C39.7682 17.7307 41.0322 17.5059 42.4178 17.5059C43.7669 17.5059 44.9823 17.7125 46.064 18.1257C47.1579 18.5268 48.0817 19.1224 48.8352 19.9124C49.6009 20.7024 50.1843 21.6748 50.5854 22.8294C50.9987 23.9719 51.2053 25.2846 51.2053 26.7674V29.4656H38.7715C38.7958 30.2435 38.9174 30.9484 39.1361 31.5805C39.3671 32.2003 39.6831 32.729 40.0842 33.1666C40.4974 33.592 40.9897 33.9202 41.5609 34.1511C42.1443 34.382 42.8067 34.4975 43.5481 34.4975C44.168 34.4975 44.7514 34.4671 45.2983 34.4063C45.8574 34.3334 46.3983 34.2301 46.9209 34.0964C47.4436 33.9627 47.9601 33.7986 48.4706 33.6041C48.9811 33.3975 49.5037 33.1605 50.0385 32.8931V37.1957C49.5523 37.451 49.0601 37.6697 48.5617 37.8521C48.0756 38.0222 47.559 38.1681 47.0121 38.2896C46.4651 38.4111 45.8757 38.4962 45.2436 38.5448C44.6116 38.6056 43.9188 38.636 43.1653 38.636Z" fill="#474747"/>
<path d="M18.6517 23.4474H20.1832C21.7511 23.4474 22.8753 23.1375 23.556 22.5176C24.2366 21.8856 24.5769 20.9618 24.5769 19.7464C24.5769 18.4824 24.2123 17.583 23.483 17.0482C22.7538 16.5134 21.6234 16.246 20.092 16.246H18.6517V23.4474ZM18.6517 28.0417V38.2695H13V11.6152H20.2925C23.7079 11.6152 26.2299 12.2776 27.8586 13.6025C29.4872 14.9151 30.3016 16.9145 30.3016 19.6006C30.3016 20.5121 30.18 21.3386 29.9369 22.08C29.6938 22.8214 29.3657 23.4838 28.9524 24.0673C28.5513 24.6385 28.0834 25.1429 27.5486 25.5805C27.026 26.0059 26.473 26.3644 25.8896 26.6561C27.2387 28.8196 28.448 30.7521 29.5176 32.4537C29.9795 33.1829 30.4231 33.894 30.8485 34.5867C31.286 35.2795 31.675 35.8994 32.0153 36.4463C32.3556 36.9933 32.6352 37.4308 32.8539 37.759L33.1639 38.2695H26.8923L21.113 28.0417H18.6517Z" fill="#474747"/>
</svg>
